<svg width="28" height="28" viewBox="0 0 28 28" fill="none" xmlns="http://www.w3.org/2000/svg">
<path d="M21 17.5V18.6667" stroke="white" stroke-linecap="round" stroke-linejoin="round"/>
<path d="M21 23.3333V24.5" stroke="white" stroke-linecap="round" stroke-linejoin="round"/>
<path d="M17.9667 19.25L19.0167 19.8333" stroke="white" stroke-linecap="round" stroke-linejoin="round"/>
<path d="M22.9833 22.1667L24.0333 22.75" stroke="white" stroke-linecap="round" stroke-linejoin="round"/>
<path d="M17.9667 22.75L19.0167 22.1667" stroke="white" stroke-linecap="round" stroke-linejoin="round"/>
<path d="M22.9833 19.8333L24.0333 19.25" stroke="white" stroke-linecap="round" stroke-linejoin="round"/>
<path d="M22.6333 19.3667C23.5667 20.3 23.5667 21.7 22.6333 22.6334C21.7 23.5667 20.3 23.5667 19.3667 22.6334C18.4333 21.7 18.4333 20.3 19.3667 19.3667C20.3 18.4334 21.7 18.4334 22.6333 19.3667" stroke="white" stroke-linecap="round" stroke-linejoin="round"/>
<path d="M17.5 6.06669C19.4833 8.05002 19.4833 11.2 17.5 13.0667C15.5167 14.9334 12.3667 15.05 10.5 13.0667C8.63334 11.0834 8.51667 7.93335 10.5 6.06669C12.4833 4.20002 15.5167 4.20002 17.5 6.06669" stroke="white" stroke-linecap="round" stroke-linejoin="round"/>
<path d="M4.66667 23.3333C4.66667 20.4166 7.00001 18.0833 9.91667 18.0833H12.95" stroke="white" stroke-linecap="round" stroke-linejoin="round"/>
</svg>
