<svg width="28" height="28" viewBox="0 0 28 28" fill="none" xmlns="http://www.w3.org/2000/svg">
<path d="M4.66667 23.3333C4.66667 20.4167 7.00001 18.0833 9.91667 18.0833H12.95" stroke="white" stroke-linecap="round" stroke-linejoin="round"/>
<path d="M17.5 6.06666C19.4833 8.04999 19.4833 11.2 17.5 13.0667C15.5167 14.9333 12.3667 15.05 10.5 13.0667C8.63334 11.0833 8.51667 7.93332 10.5 6.06666C12.4833 4.19999 15.5167 4.19999 17.5 6.06666" stroke="white" stroke-linecap="round" stroke-linejoin="round"/>
<path d="M21.4667 18.4333C22.6333 19.6 22.6333 21.4667 21.4667 22.6333C20.3 23.8 18.4333 23.8 17.2667 22.6333C16.1 21.4667 16.1 19.6 17.2667 18.4333C18.4333 17.2667 20.3 17.2667 21.4667 18.4333" stroke="white" stroke-linecap="round" stroke-linejoin="round"/>
<path d="M23.3333 24.5L21.4667 22.6333" stroke="white" stroke-linecap="round" stroke-linejoin="round"/>
</svg>
