<svg width="20" height="20" viewBox="0 0 20 20" fill="none" xmlns="http://www.w3.org/2000/svg">
<path d="M3.33333 14.1225V15.8333C3.33333 16.7542 4.07917 17.5 5 17.5H15C15.9208 17.5 16.6667 16.7542 16.6667 15.8333V8.95334" stroke="#8591AE" stroke-linecap="round" stroke-linejoin="round"/>
<path d="M3.33333 11.2058L3.33333 4.16667C3.33333 3.24583 4.07917 2.5 5 2.5L15 2.5C15.9208 2.5 16.6667 3.24583 16.6667 4.16667V6.03667" stroke="#8591AE" stroke-linecap="round" stroke-linejoin="round"/>
<path d="M4.35953 11.633C4.92905 12.2025 4.92905 13.1259 4.35953 13.6954C3.79002 14.2649 2.86665 14.2649 2.29714 13.6954C1.72763 13.1259 1.72763 12.2025 2.29714 11.633C2.86666 11.0635 3.79002 11.0635 4.35953 11.633" stroke="#8591AE" stroke-linecap="round" stroke-linejoin="round"/>
<path fill-rule="evenodd" clip-rule="evenodd" d="M10.7908 12.4975C10.7908 11.6925 11.4433 11.0392 12.2492 11.0392C13.055 11.0392 13.7075 11.6917 13.7075 12.4975C13.7075 13.3033 13.055 13.9558 12.2492 13.9558C11.4467 13.9592 10.7942 13.3117 10.7908 12.5092C10.7908 12.505 10.7908 12.5017 10.7908 12.4975Z" stroke="#8591AE" stroke-linecap="round" stroke-linejoin="round"/>
<path d="M8.8545 6.46379C9.42401 7.0333 9.42401 7.95667 8.8545 8.52618C8.28498 9.09569 7.36162 9.09569 6.79211 8.52618C6.22259 7.95666 6.22259 7.0333 6.79211 6.46379C7.36162 5.89427 8.28499 5.89427 8.8545 6.46379" stroke="#8591AE" stroke-linecap="round" stroke-linejoin="round"/>
<path d="M17.7028 6.46379C18.2723 7.0333 18.2723 7.95667 17.7028 8.52618C17.1333 9.09569 16.2099 9.09569 15.6404 8.52618C15.0709 7.95666 15.0709 7.0333 15.6404 6.46379C16.21 5.89427 17.1333 5.89427 17.7028 6.46379" stroke="#8591AE" stroke-linecap="round" stroke-linejoin="round"/>
<path d="M15.6583 8.54166L13.2417 11.4333" stroke="#8591AE" stroke-linecap="round" stroke-linejoin="round"/>
<path d="M4.31667 11.5917L6.83333 8.55832" stroke="#8591AE" stroke-linecap="round" stroke-linejoin="round"/>
<path d="M11.2583 11.4333L8.81667 8.55832" stroke="#8591AE" stroke-linecap="round" stroke-linejoin="round"/>
</svg>
