<svg width="20" height="20" viewBox="0 0 20 20" fill="none" xmlns="http://www.w3.org/2000/svg">
<path d="M11.3794 8.62058C12.1413 9.38243 12.1413 10.6176 11.3794 11.3795C10.6176 12.1413 9.38237 12.1413 8.62053 11.3795C7.85868 10.6176 7.85868 9.38242 8.62053 8.62058C9.38237 7.85873 10.6176 7.85873 11.3794 8.62058" stroke="#8591AE" stroke-linecap="round" stroke-linejoin="round"/>
<path d="M17.8741 8.75841C18.5598 9.44411 18.5598 10.5558 17.8741 11.2415C17.1884 11.9272 16.0767 11.9272 15.391 11.2415C14.7053 10.5558 14.7053 9.44411 15.391 8.75841C16.0767 8.07272 17.1884 8.07272 17.8741 8.75841" stroke="#8591AE" stroke-linecap="round" stroke-linejoin="round"/>
<path d="M4.60906 8.75841C5.29475 9.44411 5.29475 10.5558 4.60906 11.2415C3.92336 11.9272 2.81163 11.9272 2.12593 11.2415C1.44024 10.5558 1.44024 9.44411 2.12593 8.75841C2.81163 8.07272 3.92336 8.07272 4.60906 8.75841" stroke="#8591AE" stroke-linecap="round" stroke-linejoin="round"/>
<path d="M14.5574 3.01427C15.2431 3.69997 15.2431 4.8117 14.5574 5.4974C13.8717 6.18309 12.76 6.18309 12.0743 5.4974C11.3886 4.8117 11.3886 3.69997 12.0743 3.01427C12.76 2.32858 13.8717 2.32858 14.5574 3.01427" stroke="#8591AE" stroke-linecap="round" stroke-linejoin="round"/>
<path d="M7.92573 14.5026C8.61142 15.1883 8.61142 16.3 7.92573 16.9857C7.24003 17.6714 6.1283 17.6714 5.4426 16.9857C4.75691 16.3 4.75691 15.1883 5.4426 14.5026C6.1283 13.8169 7.24003 13.8169 7.92573 14.5026" stroke="#8591AE" stroke-linecap="round" stroke-linejoin="round"/>
<path d="M7.92573 3.01427C8.61142 3.69997 8.61142 4.8117 7.92573 5.4974C7.24003 6.18309 6.1283 6.18309 5.4426 5.4974C4.75691 4.8117 4.75691 3.69997 5.4426 3.01427C6.1283 2.32858 7.24003 2.32858 7.92573 3.01427" stroke="#8591AE" stroke-linecap="round" stroke-linejoin="round"/>
<path d="M14.5574 14.5026C15.2431 15.1883 15.2431 16.3 14.5574 16.9857C13.8717 17.6714 12.76 17.6714 12.0743 16.9857C11.3886 16.3 11.3886 15.1883 12.0743 14.5026C12.76 13.8169 13.8717 13.8169 14.5574 14.5026" stroke="#8591AE" stroke-linecap="round" stroke-linejoin="round"/>
<path d="M7.55833 14.225L9.025 11.6833" stroke="#8591AE" stroke-linecap="round" stroke-linejoin="round"/>
<path d="M7.55833 5.77499L9.025 8.31666" stroke="#8591AE" stroke-linecap="round" stroke-linejoin="round"/>
<path d="M14.875 10H11.95" stroke="#8591AE" stroke-linecap="round" stroke-linejoin="round"/>
</svg>
