<svg width="20" height="20" viewBox="0 0 20 20" fill="none" xmlns="http://www.w3.org/2000/svg">
<path fill-rule="evenodd" clip-rule="evenodd" d="M11.7358 17.2917L11.7358 7.29166L14.7917 7.29166C15.2517 7.29166 15.625 7.66499 15.625 8.12499L15.625 17.2917L11.7358 17.2917Z" stroke="#8591AE" stroke-linecap="round" stroke-linejoin="round"/>
<path fill-rule="evenodd" clip-rule="evenodd" d="M7.8475 17.2917L7.8475 3.12499C7.8475 2.66499 8.22083 2.29166 8.68083 2.29166L10.9033 2.29166C11.3633 2.29166 11.7367 2.66499 11.7367 3.12499L11.7367 17.2917L7.8475 17.2917Z" stroke="#8591AE" stroke-linecap="round" stroke-linejoin="round"/>
<path fill-rule="evenodd" clip-rule="evenodd" d="M3.95833 17.2917L3.95833 5.62499C3.95833 5.16499 4.33167 4.79166 4.79167 4.79166L7.8475 4.79166L7.8475 17.2917L3.95833 17.2917Z" stroke="#8591AE" stroke-linecap="round" stroke-linejoin="round"/>
<path d="M2.29167 17.2917L17.2917 17.2917" stroke="#8591AE" stroke-linecap="round" stroke-linejoin="round"/>
</svg>
