<svg width="20" height="20" viewBox="0 0 20 20" fill="none" xmlns="http://www.w3.org/2000/svg">
<path d="M2.5 2.49999L8.33333 2.49999" stroke="#8591AE" stroke-linecap="round" stroke-linejoin="round"/>
<path d="M2.5 4.99999L8.33333 4.99999" stroke="#8591AE" stroke-linecap="round" stroke-linejoin="round"/>
<path d="M2.5 7.49999H5" stroke="#8591AE" stroke-linecap="round" stroke-linejoin="round"/>
<path d="M13.2242 7.60916C14.2025 6.63083 15.7875 6.63083 16.7658 7.60916V7.60916C17.7442 8.5875 17.7442 10.1725 16.7658 11.1508L12.6017 15.315C11.6233 16.2933 10.0383 16.2933 9.06 15.315V15.315C8.08166 14.3367 8.08166 12.7517 9.06 11.7733L9.6825 11.1508" stroke="#8591AE" stroke-linecap="round" stroke-linejoin="round"/>
<path d="M7.60917 16.7667C6.63083 17.745 5.04583 17.745 4.0675 16.7667V16.7667C3.08917 15.7883 3.08917 14.2033 4.0675 13.225L8.23167 9.06084C9.21 8.0825 10.795 8.0825 11.7733 9.06084V9.06084C12.7517 10.0392 12.7517 11.6242 11.7733 12.6025L11.125 13.25" stroke="#8591AE" stroke-linecap="round" stroke-linejoin="round"/>
</svg>
