<svg width="20" height="20" viewBox="0 0 20 20" fill="none" xmlns="http://www.w3.org/2000/svg">
<path d="M6.66667 10.8333L13.3333 10.8333" stroke="#8591AE" stroke-linecap="round" stroke-linejoin="round"/>
<path d="M6.66667 14.1667L13.3333 14.1667" stroke="#8591AE" stroke-linecap="round" stroke-linejoin="round"/>
<path fill-rule="evenodd" clip-rule="evenodd" d="M5 2.5L12.6433 2.5C13.085 2.5 13.5092 2.67583 13.8217 2.98833L16.1783 5.345C16.4908 5.6575 16.6667 6.08167 16.6667 6.52333V15.8333C16.6667 16.7542 15.9208 17.5 15 17.5H5C4.07917 17.5 3.33333 16.7542 3.33333 15.8333L3.33333 4.16667C3.33333 3.24583 4.07917 2.5 5 2.5Z" stroke="#8591AE" stroke-linecap="round" stroke-linejoin="round"/>
<path d="M16.6667 6.66667L13.3333 6.66667C12.8733 6.66667 12.5 6.29333 12.5 5.83333V2.5" stroke="#8591AE" stroke-linecap="round" stroke-linejoin="round"/>
<path d="M6.66667 7.50001H9.16667" stroke="#8591AE" stroke-linecap="round" stroke-linejoin="round"/>
</svg>
