<svg width="20" height="20" viewBox="0 0 20 20" fill="none" xmlns="http://www.w3.org/2000/svg">
<path d="M11.591 8.40901C12.4697 9.2877 12.4697 10.7123 11.591 11.591C10.7123 12.4697 9.2877 12.4697 8.40902 11.591C7.53033 10.7123 7.53033 9.2877 8.40902 8.40901C9.2877 7.53033 10.7123 7.53033 11.591 8.40901" stroke="#8591AE" stroke-linecap="round" stroke-linejoin="round"/>
<path fill-rule="evenodd" clip-rule="evenodd" d="M4.375 10C4.375 10.2475 4.3975 10.495 4.4275 10.735L3.10417 11.77C2.81083 12 2.73083 12.4108 2.9175 12.7333L4.09417 14.7692C4.28 15.0917 4.675 15.2275 5.02083 15.0892L6.20583 14.6133C6.44 14.5192 6.70083 14.5567 6.91083 14.6958C7.09417 14.8175 7.28417 14.9292 7.48083 15.0292C7.70583 15.1433 7.86917 15.3475 7.905 15.5975L8.08583 16.8583C8.13833 17.2267 8.45417 17.5 8.82583 17.5H11.1733C11.545 17.5 11.8608 17.2267 11.9133 16.8583L12.0942 15.5983C12.13 15.3483 12.295 15.1425 12.5208 15.0292C12.7167 14.9308 12.9058 14.82 13.0883 14.6992C13.3 14.5592 13.5617 14.5192 13.7967 14.6142L14.9792 15.0892C15.3242 15.2275 15.7192 15.0917 15.9058 14.7692L17.0825 12.7333C17.2692 12.4108 17.1892 11.9992 16.8958 11.77L15.5725 10.735C15.6025 10.495 15.625 10.2475 15.625 10C15.625 9.7525 15.6025 9.505 15.5725 9.265L16.8958 8.23C17.1892 8 17.2692 7.58917 17.0825 7.26667L15.9058 5.23083C15.72 4.90833 15.325 4.7725 14.9792 4.91083L13.7967 5.38583C13.5617 5.48 13.3 5.44083 13.0883 5.30083C12.9058 5.18 12.7167 5.06917 12.5208 4.97083C12.295 4.8575 12.13 4.65167 12.0942 4.40167L11.9142 3.14167C11.8617 2.77333 11.5458 2.5 11.1742 2.5L8.82667 2.5C8.455 2.5 8.13917 2.77333 8.08667 3.14167L7.905 4.40333C7.86917 4.6525 7.705 4.8575 7.48083 4.97167C7.28417 5.07167 7.09417 5.18417 6.91083 5.305C6.7 5.44333 6.43917 5.48083 6.205 5.38667L5.02083 4.91083C4.675 4.7725 4.28 4.90833 4.09417 5.23083L2.9175 7.26667C2.73083 7.58917 2.81083 8.00083 3.10417 8.23L4.4275 9.265C4.3975 9.505 4.375 9.7525 4.375 10V10Z" stroke="#8591AE" stroke-linecap="round" stroke-linejoin="round"/>
</svg>
