<svg width="20" height="20" viewBox="0 0 20 20" fill="none" xmlns="http://www.w3.org/2000/svg">
<path d="M9.8625 12.5L14.0292 16.6667C14.7192 17.3567 15.8392 17.3567 16.5292 16.6667V16.6667C17.2192 15.9767 17.2192 14.8567 16.5292 14.1667L12.3625 10" stroke="#8591AE" stroke-linecap="round" stroke-linejoin="round"/>
<path d="M5.70004 5.83334L8.61671 8.75001" stroke="#8591AE" stroke-linecap="round" stroke-linejoin="round"/>
<path fill-rule="evenodd" clip-rule="evenodd" d="M2.44417 3.5775L3.00583 5.26333C3.11917 5.60417 3.4375 5.83333 3.79667 5.83333H5.69583V3.93417C5.69583 3.57583 5.46667 3.25667 5.12583 3.14333L3.44 2.58167C3.29 2.53167 3.125 2.57083 3.01333 2.6825L2.545 3.15083C2.43333 3.2625 2.39417 3.4275 2.44417 3.5775V3.5775Z" stroke="#8591AE" stroke-linecap="round" stroke-linejoin="round"/>
<path fill-rule="evenodd" clip-rule="evenodd" d="M17.43 4.8725C17.45 4.89167 17.465 4.91667 17.4725 4.94333C17.8642 6.24917 17.5608 7.71833 16.5292 8.75C15.4867 9.7925 13.9975 10.0908 12.6817 9.68083L5.72583 16.6367C5.04833 17.3142 3.94333 17.365 3.2425 16.7117C2.50583 16.0258 2.49083 14.8725 3.19583 14.1667L10.1817 7.18083C9.77167 5.865 10.07 4.37583 11.1125 3.33333C12.1442 2.30167 13.6133 1.99833 14.9192 2.39C14.9458 2.39833 14.9708 2.4125 14.99 2.4325L15.125 2.5675C15.19 2.6325 15.19 2.73833 15.125 2.80333L12.9292 5L14.8625 6.93333L17.0592 4.73667C17.1242 4.67167 17.23 4.67167 17.295 4.73667L17.43 4.8725V4.8725Z" stroke="#8591AE" stroke-linecap="round" stroke-linejoin="round"/>
</svg>
