<svg width="14" height="16" viewBox="0 0 14 16" fill="none" xmlns="http://www.w3.org/2000/svg">
<path d="M2.49784 5.49894C2.49784 5.2228 2.27398 4.99894 1.99784 4.99894C1.72169 4.99894 1.49784 5.2228 1.49784 5.49894H2.49784ZM12.502 5.49894C12.502 5.2228 12.2781 4.99894 12.002 4.99894C11.7259 4.99894 11.502 5.2228 11.502 5.49894H12.502ZM9.16728 6.33262C9.16728 6.05648 8.94342 5.83262 8.66728 5.83262C8.39114 5.83262 8.16728 6.05648 8.16728 6.33262H9.16728ZM8.16728 12.1684C8.16728 12.4445 8.39114 12.6684 8.66728 12.6684C8.94342 12.6684 9.16728 12.4445 9.16728 12.1684H8.16728ZM5.83256 6.33262C5.83256 6.05648 5.6087 5.83262 5.33256 5.83262C5.05642 5.83262 4.83256 6.05648 4.83256 6.33262H5.83256ZM4.83256 12.1684C4.83256 12.4445 5.05642 12.6684 5.33256 12.6684C5.6087 12.6684 5.83256 12.4445 5.83256 12.1684H4.83256ZM0.747315 2.4979C0.471172 2.4979 0.247315 2.72176 0.247315 2.9979C0.247315 3.27404 0.471172 3.4979 0.747315 3.4979V2.4979ZM13.2525 3.4979C13.5287 3.4979 13.7525 3.27404 13.7525 2.9979C13.7525 2.72176 13.5287 2.4979 13.2525 2.4979V3.4979ZM3.19086 2.83979C3.10353 3.10176 3.24511 3.38492 3.50708 3.47224C3.76905 3.55957 4.05221 3.41799 4.13954 3.15601L3.19086 2.83979ZM4.11872 1.63733L4.59306 1.79545L4.5931 1.79533L4.11872 1.63733ZM5.70104 0.496858L5.70092 0.996858H5.70104V0.496858ZM8.29879 0.496858V0.996858L8.29941 0.996858L8.29879 0.496858ZM9.88279 1.63733L10.3573 1.47974L10.3572 1.47933L9.88279 1.63733ZM9.86012 3.15549C9.94716 3.41756 10.2302 3.55945 10.4922 3.47242C10.7543 3.38538 10.8962 3.10238 10.8092 2.84031L9.86012 3.15549ZM1.49784 5.49894V13.8357H2.49784V5.49894H1.49784ZM1.49784 13.8357C1.49784 15.0327 2.4682 16.0031 3.6652 16.0031V15.0031C3.02048 15.0031 2.49784 14.4805 2.49784 13.8357H1.49784ZM3.6652 16.0031H10.3346V15.0031H3.6652V16.0031ZM10.3346 16.0031C11.5316 16.0031 12.502 15.0327 12.502 13.8357H11.502C11.502 14.4805 10.9794 15.0031 10.3346 15.0031V16.0031ZM12.502 13.8357V5.49894H11.502V13.8357H12.502ZM8.16728 6.33262V12.1684H9.16728V6.33262H8.16728ZM4.83256 6.33262V12.1684H5.83256V6.33262H4.83256ZM0.747315 3.4979H13.2525V2.4979H0.747315V3.4979ZM4.13954 3.15601L4.59306 1.79545L3.64438 1.47922L3.19086 2.83979L4.13954 3.15601ZM4.5931 1.79533C4.75194 1.31842 5.19825 0.996738 5.70092 0.996858L5.70116 -0.00314188C4.76788 -0.00336493 3.93926 0.593875 3.64434 1.47933L4.5931 1.79533ZM5.70104 0.996858H8.29879V-0.00314191H5.70104V0.996858ZM8.29941 0.996858C8.80252 0.996234 9.24943 1.31801 9.40841 1.79533L10.3572 1.47933C10.062 0.593117 9.23225 -0.00429863 8.29817 -0.00314153L8.29941 0.996858ZM9.40827 1.79492L9.86012 3.15549L10.8092 2.84031L10.3573 1.47974L9.40827 1.79492Z" fill="#8591AE"/>
</svg>
